<?xml version="1.0" standalone="no"?>
<!DOCTYPE svg PUBLIC "-//W3C//DTD SVG 20010904//EN"
 "http://www.w3.org/TR/2001/REC-SVG-20010904/DTD/svg10.dtd">
<svg version="1.0" xmlns="http://www.w3.org/2000/svg"
 width="400" height="227" viewBox="0 0 1256.000000 712.000000"
 preserveAspectRatio="xMidYMid meet">
<metadata>
Created by potrace 1.16, written by Peter Selinger 2001-2019
</metadata>
<g transform="translate(0.000000,712.000000) scale(0.100000,-0.100000)"
fill="hsla(187, 13%, 24%, 1.00)" stroke="none">
<path d="M6370 6671 c-91 -7 -145 -17 -325 -63 -163 -41 -398 -115 -470 -147
-330 -151 -533 -276 -785 -485 -233 -194 -375 -354 -573 -646 -62 -90 -177
-285 -177 -298 0 -3 -9 -26 -21 -51 -11 -25 -29 -65 -40 -89 -23 -52 -39 -59
-98 -43 -282 79 -630 80 -881 4 -147 -45 -227 -71 -246 -81 -11 -6 -48 -25
-84 -43 -235 -116 -480 -336 -639 -574 -69 -103 -75 -114 -122 -205 -87 -170
-148 -396 -156 -580 -4 -81 -10 -120 -20 -132 -16 -18 -77 -33 -178 -44 -161
-17 -444 -148 -620 -288 -211 -167 -383 -433 -476 -736 -20 -67 -23 -101 -27
-310 -2 -138 1 -264 7 -305 12 -82 48 -216 62 -230 5 -5 9 -15 9 -23 0 -23 59
-150 110 -236 55 -92 213 -281 286 -342 42 -35 109 -82 204 -144 76 -50 281
-134 365 -150 33 -7 78 -17 100 -23 42 -11 2089 -23 2132 -12 21 5 54 48 178
228 89 130 205 297 300 432 46 66 122 176 170 245 47 69 111 161 142 205 54
76 85 122 190 273 26 37 63 90 82 117 19 28 61 88 94 135 32 47 88 128 125
181 37 53 117 167 177 254 61 88 145 209 187 269 43 61 102 147 132 191 30 44
80 116 111 160 31 44 76 109 101 145 25 36 81 117 125 180 44 63 116 167 160
230 91 131 191 275 257 370 25 36 60 85 77 110 17 25 53 77 80 115 27 39 75
108 107 155 280 406 589 847 616 879 18 22 33 32 41 27 12 -7 123 -174 345
-518 54 -84 148 -231 210 -325 61 -95 161 -249 221 -343 61 -93 155 -240 210
-325 259 -400 405 -627 632 -978 59 -92 158 -244 218 -337 111 -170 193 -299
300 -465 101 -157 184 -285 298 -462 62 -95 162 -249 222 -343 61 -94 160
-247 220 -340 61 -93 146 -226 190 -296 117 -186 106 -178 223 -169 119 9 201
29 447 111 219 72 405 175 603 333 113 89 185 154 269 242 65 68 143 166 143
181 0 8 -35 65 -135 218 -34 52 -77 119 -96 149 -19 30 -65 103 -104 162 -38
60 -115 178 -170 264 -55 86 -145 225 -200 310 -55 86 -136 212 -180 280 -44
69 -129 201 -190 295 -60 93 -150 232 -200 310 -49 77 -127 198 -173 268 -46
70 -104 160 -130 201 -26 41 -78 123 -117 183 -38 59 -97 150 -130 202 -43 69
-66 95 -80 96 -14 0 -36 -21 -68 -67 -143 -203 -210 -297 -269 -383 -36 -52
-79 -115 -97 -140 -17 -25 -56 -81 -86 -125 -31 -44 -75 -107 -98 -140 -61
-87 -225 -323 -259 -372 -17 -25 -37 -43 -48 -43 -14 0 -43 36 -97 120 -43 66
-115 177 -160 247 -46 70 -85 135 -89 145 -3 12 14 45 52 100 31 46 86 126
122 178 36 52 80 115 97 140 17 25 52 74 77 110 25 36 64 92 87 125 23 33 62
89 87 125 25 36 81 117 125 180 180 259 179 258 179 294 0 64 -120 334 -223
501 -259 421 -538 722 -907 977 -127 88 -179 118 -345 200 -77 38 -151 75
-165 82 -14 8 -41 19 -60 24 -19 6 -66 23 -105 37 -104 39 -289 87 -455 119
-41 8 -97 20 -125 26 -59 13 -665 21 -805 11z M10440 4693 c0 -10 37 -75 83
-145 45 -70 123 -191 172 -268 50 -77 122 -189 160 -248 39 -60 94 -147 124
-193 109 -169 185 -288 294 -456 62 -95 148 -229 192 -298 44 -69 125 -195
180 -280 55 -85 145 -225 200 -310 55 -86 140 -218 189 -293 203 -312 189
-294 211 -271 37 39 95 410 95 607 0 113 -30 394 -52 487 -75 324 -195 582
-391 845 -113 151 -300 331 -482 465 -75 55 -267 168 -306 180 -13 4 -28 11
-34 15 -9 7 -52 24 -200 80 -104 39 -348 100 -402 100 -25 0 -33 -4 -33 -17z
M7117 4197 c-10 -6 -25 -24 -35 -39 -9 -14 -44 -64 -76 -109 -33 -46 -82 -117
-111 -158 -28 -42 -66 -96 -83 -121 -18 -25 -54 -76 -80 -115 -26 -38 -64 -92
-83 -120 -31 -43 -137 -194 -294 -420 -76 -108 -173 -248 -250 -360 -42 -60
-114 -164 -160 -230 -47 -66 -106 -151 -133 -190 -26 -38 -68 -99 -94 -135
-68 -98 -168 -242 -253 -365 -42 -60 -114 -164 -160 -230 -46 -66 -104 -149
-129 -185 -25 -36 -62 -90 -84 -120 -21 -30 -69 -100 -107 -155 -38 -55 -79
-113 -92 -128 -27 -33 -30 -72 -7 -81 27 -10 2040 -7 2068 4 24 9 62 59 321
431 156 224 189 271 243 349 25 36 72 103 104 150 32 47 92 132 133 190 41 58
104 149 141 203 36 53 70 100 74 102 18 11 41 -10 82 -76 24 -38 61 -99 83
-134 145 -233 185 -303 185 -323 0 -21 -29 -66 -191 -297 -19 -27 -61 -87 -92
-133 -97 -140 -162 -234 -208 -300 -24 -35 -76 -109 -115 -165 -38 -56 -86
-124 -105 -152 -20 -27 -66 -95 -104 -150 -60 -88 -109 -158 -139 -200 -5 -7
-6 -20 -3 -29 6 -15 97 -16 1105 -16 880 0 1102 3 1110 13 8 9 4 23 -16 53
-15 22 -61 93 -102 158 -41 64 -115 179 -165 256 -49 76 -106 165 -126 197
-20 32 -109 171 -198 308 -89 138 -194 301 -234 363 -39 62 -121 189 -182 282
-60 93 -141 219 -180 280 -38 61 -119 187 -180 280 -60 93 -150 233 -200 310
-49 77 -135 210 -190 295 -55 85 -145 225 -200 310 -55 86 -145 225 -200 310
-55 86 -133 207 -174 270 -85 133 -91 139 -114 122z"/>
</g>
</svg>